<?xml version="1.0" encoding="utf-8"?>
<!-- Generator: Adobe Illustrator 21.1.0, SVG Export Plug-In . SVG Version: 6.00 Build 0)  -->
<svg version="1.1" id="Layer_1" xmlns="http://www.w3.org/2000/svg" xmlns:xlink="http://www.w3.org/1999/xlink" x="0px" y="0px"
	 viewBox="0 0 82.3 82.3" enable-background="new 0 0 82.3 82.3" xml:space="preserve">
<g>
	<g>
		<path fill="#D1D3D4" d="M48.3,0.7C37.1-1.3,26.8,1,17.5,7.5C8.3,14,2.6,22.8,0.7,34c-1.8,9.9-0.2,19.1,4.7,27.5l17.2-12
			c-3.9-8.7-1.2-19.3,6.9-25s19-4.6,25.8,2.1l17.2-12C66.2,7,58.2,2.4,48.3,0.7z M59.7,32.8c3.9,8.7,1.2,19.3-6.9,25
			s-19,4.6-25.8-2.1l-17.2,12C16,75.2,24.1,79.8,34,81.6c11.2,2,21.4-0.3,30.7-6.7c9.3-6.5,14.9-15.3,16.9-26.5
			c1.8-9.9,0.2-19.1-4.7-27.5L59.7,32.8z"/>
	</g>
	<g>
		
			<ellipse transform="matrix(0.8192 -0.5736 0.5736 0.8192 -16.149 31.0404)" fill="#D1D3D4" cx="41.1" cy="41.1" rx="13.8" ry="13.8"/>
	</g>
</g>
</svg>
